<?xml version="1.0" encoding="UTF-8"?>
<!--Generator: Apple Native CoreSVG 341-->
<!DOCTYPE svg
PUBLIC "-//W3C//DTD SVG 1.1//EN"
       "http://www.w3.org/Graphics/SVG/1.1/DTD/svg11.dtd">
<svg version="1.1" xmlns="http://www.w3.org/2000/svg" xmlns:xlink="http://www.w3.org/1999/xlink" viewBox="0 0 273.73 184.962">
 <g>
  <rect height="184.962" opacity="0" width="273.73" x="0" y="0"/>
  <path d="M110.156 184.62C115.332 185.987 120.02 183.155 121.582 177.979L170.215 11.2798C171.582 6.59232 169.336 1.90482 164.16 0.537631C159.082-0.829556 154.688 1.12357 152.93 7.17826L104.59 172.999C103.027 178.272 104.688 183.155 110.156 184.62Z" fill="white"/>
  <path d="M0 92.4322C0 95.1665 1.17188 97.8033 3.41797 99.7564L68.6523 158.643C72.7539 162.354 78.2227 162.354 81.6406 158.545C85.0586 154.639 84.4727 149.17 80.5664 145.655L21.875 92.4322L80.5664 39.2095C84.4727 35.6939 85.0586 30.1275 81.6406 26.3189C78.2227 22.5103 72.7539 22.5103 68.6523 26.2212L3.41797 85.0103C1.17188 87.0611 0 89.6978 0 92.4322ZM273.73 92.4322C273.73 89.6978 272.656 87.0611 270.41 85.0103L205.176 26.2212C200.977 22.5103 195.605 22.5103 192.188 26.3189C188.77 30.1275 189.258 35.6939 193.164 39.2095L251.953 92.4322L193.164 145.655C189.258 149.17 188.77 154.639 192.188 158.545C195.605 162.354 200.977 162.354 205.176 158.643L270.41 99.7564C272.656 97.8033 273.73 95.1665 273.73 92.4322Z" fill="white"/>
 </g>
</svg>
