<?xml version="1.0" encoding="UTF-8"?>
<!--Generator: Apple Native CoreSVG 341-->
<!DOCTYPE svg
PUBLIC "-//W3C//DTD SVG 1.1//EN"
       "http://www.w3.org/Graphics/SVG/1.1/DTD/svg11.dtd">
<svg version="1.1" xmlns="http://www.w3.org/2000/svg" xmlns:xlink="http://www.w3.org/1999/xlink" viewBox="0 0 215.918 213.011">
 <g>
  <rect height="213.011" opacity="0" width="215.918" x="0" y="0"/>
  <path d="M107.91 199.816C110.352 199.816 112.695 199.718 115.039 199.523L120.41 209.582C121.68 212.121 123.926 213.097 126.66 212.804C129.492 212.316 131.152 210.461 131.445 207.726L133.105 196.398C137.793 195.129 142.188 193.468 146.484 191.515L154.883 199.132C156.934 201.086 159.473 201.183 161.914 199.914C164.355 198.546 165.332 196.203 164.746 193.468L162.305 182.336C166.211 179.601 169.824 176.476 173.242 173.254L183.691 177.55C186.328 178.527 188.77 177.941 190.625 175.793C192.48 173.644 192.676 171.203 191.113 168.761L185.059 159.191C187.695 155.187 190.039 151.086 192.188 146.886L203.418 147.277C206.25 147.375 208.398 146.007 209.375 143.273C210.352 140.734 209.668 138.293 207.422 136.632L198.34 129.699C199.609 125.109 200.391 120.421 200.879 115.539L211.621 112.121C214.355 111.242 215.918 109.289 215.918 106.457C215.918 103.625 214.355 101.574 211.621 100.793L200.879 97.3746C200.391 92.4918 199.609 87.8043 198.34 83.2145L207.324 76.2809C209.668 74.6207 210.254 72.1793 209.375 69.5426C208.398 66.8082 206.25 65.5387 203.418 65.6363L192.188 65.9293C190.039 61.7301 187.695 57.5309 185.059 53.6246L191.016 44.152C192.578 41.7105 192.383 39.1715 190.723 37.023C188.77 34.8746 186.328 34.3863 183.789 35.3629L173.242 39.6598C169.824 36.2418 166.113 33.2145 162.305 30.4801L164.746 19.4449C165.332 16.6129 164.355 14.3668 162.012 12.9996C159.473 11.5348 156.934 11.9254 154.883 13.7809L146.387 21.3004C142.188 19.3473 137.695 17.7848 133.008 16.4176L131.445 5.18711C131.152 2.45273 129.395 0.694922 126.758 0.108985C123.926-0.379296 121.68 0.792579 120.41 3.23398L115.039 13.2926C112.695 13.1949 110.352 13.0973 107.91 13.0973C105.566 13.0973 103.223 13.1949 100.781 13.2926L95.5078 3.33164C94.1406 0.792579 91.8945-0.28164 89.2578 0.108985C86.4258 0.597266 84.7656 2.45273 84.375 5.18711L82.7148 16.4176C78.125 17.7848 73.6328 19.4449 69.3359 21.398L61.0352 13.7809C58.9844 11.8277 56.4453 11.6324 53.9062 12.9996C51.4648 14.3668 50.5859 16.7105 51.1719 19.4449L53.5156 30.5777C49.6094 33.3121 45.9961 36.3395 42.5781 39.6598L32.1289 35.3629C29.5898 34.2887 27.0508 34.9723 25.1953 37.1207C23.3398 39.1715 23.2422 41.7105 24.8047 44.152L30.8594 53.7223C28.125 57.6285 25.7812 61.8277 23.7305 66.027L12.5 65.6363C9.57031 65.441 7.51953 66.9059 6.54297 69.5426C5.46875 72.1793 6.25 74.6207 8.49609 76.2809L17.4805 83.2145C16.3086 87.8043 15.4297 92.4918 15.0391 97.3746L4.19922 100.793C1.46484 101.574 0 103.625 0 106.457C0 109.289 1.46484 111.242 4.19922 112.121L15.0391 115.539C15.4297 120.421 16.3086 125.109 17.4805 129.699L8.49609 136.632C6.25 138.293 5.66406 140.734 6.44531 143.371C7.51953 146.105 9.57031 147.375 12.4023 147.277L23.7305 146.886C25.7812 151.183 28.125 155.285 30.8594 159.289L24.8047 168.761C23.2422 171.203 23.5352 173.742 25.1953 175.793C27.1484 178.039 29.5898 178.527 32.1289 177.55L42.5781 173.156C45.9961 176.574 49.707 179.601 53.5156 182.433L51.1719 193.468C50.5859 196.203 51.5625 198.546 53.9062 199.914C56.4453 201.379 58.9844 201.086 60.9375 199.132L69.4336 191.515C73.7305 193.566 78.2227 195.129 82.8125 196.398L84.375 207.629C84.7656 210.461 86.5234 212.218 89.1602 212.804C91.9922 213.293 94.1406 212.121 95.5078 209.582L100.781 199.523C103.223 199.718 105.566 199.816 107.91 199.816ZM107.91 183.605C65.332 183.605 30.7617 149.035 30.7617 106.457C30.7617 63.7809 65.332 29.3082 107.91 29.3082C150.586 29.3082 185.059 63.7809 185.059 106.457C185.059 149.035 150.586 183.605 107.91 183.605ZM90.918 91.5152L102.441 84.191L69.8242 28.234L57.8125 34.9723ZM129.688 113.097L194.629 113.097L194.629 99.6207L129.688 99.6207ZM102.637 129.015L91.2109 121.593L56.8359 177.648L68.75 184.679ZM108.008 132.043C122.168 132.043 133.594 120.617 133.594 106.457C133.594 92.2965 122.168 80.8707 108.008 80.8707C93.8477 80.8707 82.4219 92.2965 82.4219 106.457C82.4219 120.617 93.8477 132.043 108.008 132.043ZM108.008 117.394C101.953 117.394 97.0703 112.511 97.0703 106.457C97.0703 100.402 101.953 95.5191 108.008 95.5191C114.062 95.5191 118.945 100.402 118.945 106.457C118.945 112.511 114.062 117.394 108.008 117.394Z" fill="white"/>
 </g>
</svg>
