<?xml version="1.0" encoding="UTF-8"?>
<!--Generator: Apple Native CoreSVG 341-->
<!DOCTYPE svg
PUBLIC "-//W3C//DTD SVG 1.1//EN"
       "http://www.w3.org/Graphics/SVG/1.1/DTD/svg11.dtd">
<svg version="1.1" xmlns="http://www.w3.org/2000/svg" xmlns:xlink="http://www.w3.org/1999/xlink" viewBox="0 0 164.258 270.605">
 <g>
  <rect height="270.605" opacity="0" width="164.258" x="0" y="0"/>
  <path d="M164.258 69.2383L164.258 217.285C164.258 237.793 154.199 247.949 133.984 247.949L30.2734 247.949C10.0586 247.949 0 237.793 0 217.285L0 69.2383C0 48.7305 10.0586 38.5742 30.2734 38.5742L31.5663 38.5742C31.484 39.3681 31.4453 40.1835 31.4453 41.0156L31.4453 51.2695C31.4453 52.3091 31.5067 53.3228 31.6478 54.2969L31.0547 54.2969C20.8984 54.2969 15.7227 59.7656 15.7227 69.4336L15.7227 217.09C15.7227 226.855 20.8984 232.227 31.0547 232.227L133.203 232.227C143.359 232.227 148.535 226.855 148.535 217.09L148.535 69.4336C148.535 59.7656 143.359 54.2969 133.203 54.2969L132.61 54.2969C132.751 53.3228 132.812 52.3091 132.812 51.2695L132.812 41.0156C132.812 40.1835 132.774 39.3681 132.692 38.5742L133.984 38.5742C154.199 38.5742 164.258 48.7305 164.258 69.2383Z" fill="white"/>
  <path d="M51.9531 60.9375L112.305 60.9375C117.969 60.9375 121.387 57.3242 121.387 51.2695L121.387 41.0156C121.387 34.9609 117.969 31.3477 112.305 31.3477L103.32 31.3477C102.637 20.3125 93.457 11.3281 82.1289 11.3281C70.8008 11.3281 61.6211 20.3125 60.9375 31.3477L51.9531 31.3477C46.2891 31.3477 42.8711 34.9609 42.8711 41.0156L42.8711 51.2695C42.8711 57.3242 46.2891 60.9375 51.9531 60.9375ZM82.1289 40.625C77.4414 40.625 73.6328 36.7188 73.6328 32.1289C73.6328 27.3438 77.4414 23.5352 82.1289 23.5352C86.8164 23.5352 90.625 27.3438 90.625 32.1289C90.625 36.7188 86.8164 40.625 82.1289 40.625Z" fill="white"/>
  <path d="M40.918 117.676C45.5078 117.676 49.2188 113.965 49.2188 109.375C49.2188 104.785 45.5078 101.074 40.918 101.074C36.4258 101.074 32.6172 104.883 32.6172 109.375C32.6172 113.867 36.4258 117.676 40.918 117.676ZM40.918 152.246C45.5078 152.246 49.2188 148.535 49.2188 143.945C49.2188 139.355 45.5078 135.742 40.918 135.742C36.3281 135.742 32.6172 139.453 32.6172 143.945C32.6172 148.535 36.3281 152.246 40.918 152.246ZM40.918 188.867C45.5078 188.867 49.2188 185.156 49.2188 180.566C49.2188 175.977 45.5078 172.266 40.918 172.266C36.4258 172.266 32.6172 176.074 32.6172 180.566C32.6172 185.059 36.4258 188.867 40.918 188.867ZM66.9922 115.43L125.586 115.43C128.906 115.43 131.641 112.695 131.641 109.375C131.641 106.055 128.906 103.223 125.586 103.223L66.9922 103.223C63.6719 103.223 60.8398 106.055 60.8398 109.375C60.8398 112.695 63.6719 115.43 66.9922 115.43ZM66.9922 150.098L125.586 150.098C129.004 150.098 131.641 147.363 131.641 143.945C131.641 140.625 129.004 137.988 125.586 137.988L66.9922 137.988C63.5742 137.988 60.8398 140.625 60.8398 143.945C60.8398 147.363 63.5742 150.098 66.9922 150.098ZM66.9922 186.621L125.586 186.621C128.906 186.621 131.641 183.887 131.641 180.566C131.641 177.246 129.004 174.512 125.586 174.512L66.9922 174.512C63.5742 174.512 60.8398 177.246 60.8398 180.566C60.8398 183.887 63.6719 186.621 66.9922 186.621Z" fill="white"/>
 </g>
</svg>
