<?xml version="1.0" encoding="UTF-8"?>
<!--Generator: Apple Native CoreSVG 341-->
<!DOCTYPE svg
PUBLIC "-//W3C//DTD SVG 1.1//EN"
       "http://www.w3.org/Graphics/SVG/1.1/DTD/svg11.dtd">
<svg version="1.1" xmlns="http://www.w3.org/2000/svg" xmlns:xlink="http://www.w3.org/1999/xlink" viewBox="0 0 170.898 219.824">
 <g>
  <rect height="219.824" opacity="0" width="170.898" x="0" y="0"/>
  <path d="M0 25L24.5117 25L24.5117 11.0352C24.5117 4.00391 20.8984 0 14.5508 0L9.76562 0C3.51562 0 0 4.19922 0 11.0352ZM0 194.238L8.88672 216.113C9.86328 218.359 13.4766 218.555 14.5508 216.211L24.5117 194.238L24.5117 36.4258L0 36.4258ZM98.5352 218.262L146.973 218.262C161.133 218.262 170.898 208.496 170.898 194.336L170.898 25.4883C170.898 11.2305 161.133 1.36719 146.973 1.36719L98.5352 1.36719C84.375 1.36719 74.707 11.1328 74.707 25.3906L74.707 194.238C74.707 208.496 84.375 218.262 98.5352 218.262ZM101.172 204.004C93.75 204.004 88.9648 199.219 88.9648 192.09L88.9648 27.6367C88.9648 20.5078 93.75 15.7227 101.172 15.7227L144.434 15.7227C151.758 15.7227 156.543 20.5078 156.543 27.6367L156.543 191.992C156.543 199.121 151.758 204.004 144.434 204.004ZM161.621 35.3516L161.621 27.9297L114.941 27.9297C112.988 27.9297 111.328 29.4922 111.328 31.6406C111.328 33.5938 112.891 35.3516 114.844 35.3516ZM161.621 50.8789L161.621 43.6523L130.469 43.6523C128.418 43.6523 126.953 45.1172 126.953 47.3633C126.953 49.3164 128.32 50.8789 130.371 50.8789ZM161.621 66.6016L161.621 59.375L130.469 59.375C128.418 59.375 126.953 60.8398 126.953 63.0859C126.953 65.0391 128.32 66.6016 130.371 66.6016ZM161.621 82.2266L161.621 74.9023L130.469 74.9023C128.418 74.9023 126.953 76.3672 126.953 78.5156C126.953 80.6641 128.32 82.2266 130.371 82.2266ZM161.621 97.8516L161.621 90.5273L130.469 90.5273C128.418 90.5273 126.953 92.0898 126.953 94.3359C126.953 96.1914 128.32 97.8516 130.371 97.8516ZM161.621 113.379L161.621 106.25L114.941 106.25C112.988 106.25 111.328 107.715 111.328 109.863C111.328 111.914 112.891 113.379 114.844 113.379ZM161.621 129.199L161.621 121.875L130.469 121.875C128.418 121.875 126.953 123.34 126.953 125.488C126.953 127.539 128.32 129.199 130.371 129.199ZM161.621 144.824L161.621 137.598L130.469 137.598C128.418 137.598 126.953 138.965 126.953 141.211C126.953 143.164 128.32 144.824 130.371 144.824ZM161.621 160.352L161.621 153.125L130.469 153.125C128.418 153.125 126.953 154.688 126.953 156.738C126.953 158.691 128.32 160.352 130.371 160.352ZM161.621 175.977L161.621 168.75L130.469 168.75C128.418 168.75 126.953 170.117 126.953 172.266C126.953 174.414 128.32 175.977 130.371 175.977ZM161.621 191.602L161.621 184.277L114.941 184.277C112.988 184.277 111.328 185.84 111.328 187.988C111.328 189.941 112.891 191.602 114.844 191.602Z" fill="white"/>
 </g>
</svg>
