<?xml version="1.0" encoding="UTF-8"?>
<!--Generator: Apple Native CoreSVG 341-->
<!DOCTYPE svg
PUBLIC "-//W3C//DTD SVG 1.1//EN"
       "http://www.w3.org/Graphics/SVG/1.1/DTD/svg11.dtd">
<svg version="1.1" xmlns="http://www.w3.org/2000/svg" xmlns:xlink="http://www.w3.org/1999/xlink" viewBox="0 0 164.258 209.473">
 <g>
  <rect height="209.473" opacity="0" width="164.258" x="0" y="0"/>
  <path d="M0 178.809C0 199.219 10.0586 209.375 30.2734 209.375L133.984 209.375C154.199 209.375 164.258 199.219 164.258 178.809L164.258 30.6641C164.258 10.3516 154.199 0 133.984 0L30.2734 0C10.0586 0 0 10.3516 0 30.6641ZM15.7227 178.516L15.7227 30.957C15.7227 21.1914 20.8984 15.7227 31.0547 15.7227L133.203 15.7227C143.359 15.7227 148.535 21.1914 148.535 30.957L148.535 178.516C148.535 188.281 143.359 193.652 133.203 193.652L31.0547 193.652C20.8984 193.652 15.7227 188.281 15.7227 178.516Z" fill="white" fill-opacity="0.85"/>
  <path d="M44.6289 50.1953L123.34 50.1953C126.855 50.1953 129.395 47.5586 129.395 44.1406C129.395 40.8203 126.855 38.1836 123.34 38.1836L44.6289 38.1836C41.0156 38.1836 38.4766 40.8203 38.4766 44.1406C38.4766 47.5586 41.0156 50.1953 44.6289 50.1953ZM44.6289 78.5156L90.8203 78.5156C94.2383 78.5156 96.875 75.8789 96.875 72.4609C96.875 69.1406 94.2383 66.5039 90.8203 66.5039L44.6289 66.5039C41.0156 66.5039 38.4766 69.1406 38.4766 72.4609C38.4766 75.8789 41.0156 78.5156 44.6289 78.5156ZM46.0938 175.195L118.262 175.195C126.855 175.195 131.25 170.801 131.25 162.207L131.25 107.91C131.25 99.3164 126.855 94.8242 118.262 94.8242L46.0938 94.8242C37.793 94.8242 33.0078 99.3164 33.0078 107.91L33.0078 162.207C33.0078 170.801 37.793 175.195 46.0938 175.195Z" fill="white" fill-opacity="0.85"/>
 </g>
</svg>
